<svg xmlns="http://www.w3.org/2000/svg" viewBox="0 0 400 400">
  <g>
    <path
      d="M302.734 22.111 C 237.033 44.053,232.647 45.721,224.604 51.817 C 216.235 58.161,113.769 161.549,111.037 166.406 C 107.767 172.220,105.958 180.681,106.426 187.975 C 106.630 191.151,106.624 193.750,106.413 193.750 C 106.202 193.750,98.468 192.284,89.226 190.491 C 73.945 187.528,72.238 187.336,70.391 188.371 C 67.292 190.107,0.970 265.590,0.533 267.879 C 0.027 270.521,1.104 273.101,3.317 274.551 C 4.778 275.508,73.010 279.688,87.176 279.688 C 87.723 279.687,88.007 281.854,87.969 285.742 C 87.812 301.836,98.243 312.251,114.258 311.989 C 119.591 311.901,120.313 312.056,120.313 313.287 C 120.312 330.561,124.451 395.221,125.662 396.856 C 127.185 398.914,129.815 399.889,132.491 399.390 C 134.556 399.004,210.074 332.376,211.671 329.531 C 212.765 327.581,212.624 326.249,209.801 311.953 C 208.121 303.445,206.604 295.744,206.429 294.839 C 206.124 293.259,206.342 293.209,211.955 293.570 C 219.323 294.042,227.756 292.247,233.594 288.963 C 238.453 286.230,341.840 183.763,348.186 175.391 C 354.326 167.291,356.304 162.083,378.092 96.620 L 399.370 32.694 399.064 25.917 C 398.383 10.831,388.886 1.433,373.828 0.944 L 366.797 0.716 302.734 22.111 M378.906 15.272 C 383.250 17.465,385.938 21.832,385.938 26.697 C 385.938 30.821,346.640 150.510,342.375 159.375 C 339.761 164.809,337.752 167.050,314.716 190.234 L 289.876 215.234 237.321 162.684 L 184.766 110.134 209.375 85.657 C 226.838 68.287,235.232 60.488,238.281 58.798 C 241.284 57.134,353.314 19.208,371.484 13.704 C 372.711 13.333,376.759 14.188,378.906 15.272 M227.731 172.653 L 280.067 224.993 267.187 237.891 L 254.308 250.788 201.767 198.251 L 149.225 145.714 161.908 133.013 C 168.884 126.028,174.772 120.313,174.993 120.313 C 175.214 120.313,198.946 143.866,227.731 172.653 M192.572 207.806 L 244.905 260.144 237.101 268.021 C 224.843 280.394,215.154 283.403,204.297 278.209 C 198.608 275.488,124.512 201.392,121.791 195.703 C 119.136 190.154,119.123 180.090,121.765 175.000 C 123.312 172.018,138.621 155.469,139.832 155.469 C 140.056 155.469,163.789 179.021,192.572 207.806 M97.172 205.775 L 114.266 209.196 124.322 219.251 L 134.377 229.307 115.431 248.127 L 96.484 266.947 60.381 265.177 C 40.525 264.204,23.679 263.291,22.945 263.149 C 21.985 262.963,27.586 256.117,42.969 238.672 C 77.356 199.679,75.693 201.421,78.038 201.920 C 79.160 202.159,87.770 203.893,97.172 205.775 M140.043 276.768 C 117.288 299.550,116.205 300.342,110.262 298.561 C 105.933 297.265,103.439 295.016,101.921 291.041 C 99.265 284.085,99.309 284.020,122.894 260.348 L 144.109 239.056 152.527 247.449 L 160.946 255.841 140.043 276.768 M194.609 304.681 C 196.701 315.101,198.222 323.935,197.989 324.313 C 196.343 326.976,137.071 378.176,136.864 377.113 C 136.729 376.420,135.808 359.577,134.818 339.685 L 133.018 303.516 151.856 284.569 L 170.693 265.623 180.750 275.679 L 190.806 285.735 194.609 304.681 "
      stroke="none"
      fill="currentColor"
    ></path>
  </g>
</svg>
