<svg viewBox="0 0 24 24" fill="none"><path stroke="currentColor" stroke-linecap="round" stroke-linejoin="round" stroke-width="1.5" d="m18.67 18.67 2.22-1.11v-2.78m-6.67-5L12 10.89l2.22-1.11ZM12 10.89 9.78 9.78 12 10.89Zm0 0v2.78-2.78Zm8.89-4.45-2.22 1.11 2.22-1.11Zm0 0-2.22-1.11 2.22 1.11Zm0 0v2.78-2.78Zm-6.67-3.33L12 2 9.78 3.11h4.44ZM3.11 6.44l2.22-1.11-2.22 1.11Zm0 0 2.22 1.11-2.22-1.11Zm0 0v2.78-2.78ZM12 22l-2.22-1.11L12 22Zm0 0 2.22-1.11L12 22Zm0 0v-2.78V22Zm-6.67-3.33-2.22-1.11v-2.78l2.22 3.89Z"/></svg>